<svg width="287" height="30" viewBox="0 0 287 30" fill="none" xmlns="http://www.w3.org/2000/svg">
<path d="M213.233 5.94254H215.744V25.497H211.84V12.4933L205.901 20.4129L200.035 12.4933V25.4383H196.131V5.88388H199.65L205.901 14.3705L211.638 6.68562C211.831 6.43804 212.076 6.24196 212.353 6.11297C212.63 5.98399 212.931 5.92563 213.233 5.94254Z" fill="white"/>
<path d="M221.628 25.497H217.705V10.8539L221.628 9.80652V25.497Z" fill="white"/>
<path d="M235.171 13.3307V6.87036L239.28 5.88388V25.2261H236.22C235.94 25.2211 235.673 25.117 235.477 24.9361C235.281 24.7553 235.171 24.5122 235.171 24.259V23.5627C234.638 24.162 233.964 24.6464 233.198 24.9809C232.431 25.3155 231.593 25.4918 230.742 25.497C228.766 25.4166 226.906 24.6332 225.567 23.3178C224.228 22.0025 223.519 20.2619 223.595 18.4757C223.519 16.6896 224.228 14.949 225.567 13.6336C226.906 12.3182 228.766 11.5349 230.742 11.4545C231.587 11.4526 232.423 11.6199 233.189 11.9443C233.955 12.2686 234.632 12.7421 235.171 13.3307ZM235.171 18.4177C235.209 17.9551 235.143 17.4903 234.979 17.051C234.814 16.6117 234.553 16.2069 234.212 15.8605C233.87 15.5141 233.455 15.2332 232.992 15.0345C232.528 14.8358 232.025 14.7234 231.512 14.704C230.998 14.7208 230.494 14.8314 230.029 15.0292C229.563 15.227 229.147 15.5078 228.805 15.8548C228.464 16.2018 228.203 16.6077 228.039 17.0482C227.876 17.4886 227.812 17.9545 227.853 18.4177C227.812 18.8809 227.876 19.3467 228.039 19.7872C228.203 20.2277 228.464 20.6336 228.805 20.9806C229.147 21.3276 229.563 21.6084 230.029 21.8062C230.494 22.004 230.998 22.1146 231.512 22.1314C232.025 22.112 232.528 21.9995 232.992 21.8009C233.455 21.6022 233.87 21.3213 234.212 20.9749C234.553 20.6285 234.814 20.2237 234.979 19.7844C235.143 19.3451 235.209 18.8803 235.171 18.4177Z" fill="white"/>
<path d="M251.463 11.7678L254.154 19.9936L256.866 11.7678H260.854L256.108 25.4774H253.476C253.27 25.4731 253.069 25.407 252.902 25.2881C252.735 25.1691 252.608 25.0029 252.539 24.8115L250.067 17.6629L247.375 25.497H244.025L239.28 11.7874H243.268L245.959 20.0132L248.651 11.7874L251.463 11.7678Z" fill="white"/>
<path d="M268.959 23.8591C268.491 24.3607 267.925 24.7627 267.295 25.0408C266.665 25.3189 265.985 25.4673 265.296 25.4768C264.752 25.531 264.204 25.4756 263.683 25.3139C263.162 25.1522 262.679 24.8876 262.264 24.5361C261.849 24.1845 261.51 23.7533 261.268 23.2684C261.025 22.7835 260.885 22.255 260.854 21.7147C260.871 20.6724 261.282 19.6743 262.006 18.9183C262.73 18.1622 263.715 17.7034 264.764 17.6328L268.959 16.8804C268.959 15.827 268.143 14.9993 266.662 14.9993C266.096 14.9877 265.535 15.1016 265.02 15.3327C264.504 15.5638 264.047 15.9062 263.682 16.3348L261.651 14.3222C262.276 13.5268 263.077 12.8842 263.991 12.444C264.906 12.0037 265.911 11.7775 266.928 11.7827C267.654 11.7284 268.385 11.8232 269.073 12.0613C269.76 12.2994 270.391 12.6757 270.926 13.1665C271.46 13.6574 271.887 14.2523 272.179 14.9139C272.47 15.5756 272.621 16.2899 272.622 17.0121V25.1759H269.908C269.659 25.1709 269.423 25.0697 269.249 24.8938C269.075 24.718 268.978 24.4815 268.978 24.2353L268.959 23.8591ZM268.959 19.5891V19.1753L265.979 19.7208C265.03 19.8713 264.498 20.3792 264.498 21.188C264.498 21.9969 265.03 22.5236 266.245 22.5236C266.626 22.5373 267.006 22.4688 267.359 22.3227C267.711 22.1766 268.027 21.9564 268.285 21.6774C268.543 21.3984 268.737 21.0672 268.854 20.7066C268.97 20.3461 269.006 19.9648 268.959 19.5891Z" fill="white"/>
<path d="M277.721 23.9963L272.622 11.7678H276.399L279.477 19.9733L282.574 11.7678H286.351L281.12 24.8824C279.911 27.913 278.287 29.4194 276.002 29.4194C275.223 29.4257 274.449 29.2996 273.717 29.0472V26.247C273.715 26.223 273.72 26.1988 273.731 26.1769C273.742 26.155 273.758 26.1361 273.779 26.1219C273.8 26.1077 273.824 26.0987 273.85 26.0958C273.875 26.0929 273.901 26.0962 273.925 26.1053C274.297 26.22 274.685 26.2798 275.077 26.2825C275.565 26.2973 276.046 26.1709 276.455 25.9204C276.863 25.67 277.18 25.3076 277.362 24.8824L277.721 23.9963Z" fill="white"/>
<path d="M226.531 5.88393C228.156 5.88393 229.473 4.56677 229.473 2.94196C229.473 1.31716 228.156 0 226.531 0C224.906 0 223.589 1.31716 223.589 2.94196C223.589 4.56677 224.906 5.88393 226.531 5.88393Z" fill="white"/>
<path d="M178.812 0.263977H177.592V29.5331H178.812V0.263977Z" fill="white"/>
<path d="M12.097 16.6517C13.2971 16.3473 14.3661 15.6744 15.1473 14.7316C15.9285 13.7888 16.3808 12.6258 16.4379 11.413C16.3372 9.86086 15.6151 8.41038 14.4287 7.37666C13.2422 6.34293 11.6872 5.8095 10.1015 5.89225H0V25.497H3.37402V17.7397H5.82223C7.87954 17.7397 8.55842 17.7397 9.6488 19.2911L13.7634 25.497H17.6518L11.7885 16.7323L12.097 16.6517ZM3.37402 14.7577V8.91456H10.1837C10.9503 8.96905 11.6691 9.29994 12.2011 9.84329C12.7331 10.3866 13.0406 11.1038 13.064 11.8563C13.0389 12.6218 12.7199 13.3499 12.1707 13.8952C11.6215 14.4405 10.8827 14.7629 10.1015 14.798L3.37402 14.7577Z" fill="white"/>
<path d="M37.4254 5.88388L29.4197 25.4769H32.54L34.323 21.1878H42.1683L43.9513 25.497H47.0715L39.048 5.88388H37.4254ZM35.4463 18.2075L38.1208 11.6027H38.2635L40.9201 18.2075H35.4463Z" fill="white"/>
<path d="M52.2565 15.7675C52.2565 13.9723 52.974 12.2502 54.2517 10.9789C55.5293 9.70765 57.2629 8.99089 59.0724 8.98579C61.0346 9.06528 62.888 9.90178 64.2378 11.317H64.3349L66.6846 9.21704L66.5679 9.10144C65.5414 8.09915 64.3452 7.28396 63.0339 6.69316C61.8003 6.18937 60.4838 5.91505 59.1502 5.88396C57.7725 5.87881 56.4071 6.14058 55.1305 6.65459C53.9273 7.15311 52.8375 7.88697 51.9264 8.8124C51.0102 9.70845 50.2826 10.7762 49.7859 11.9537C49.2892 13.1311 49.0333 14.3948 49.0331 15.6712C49.0231 16.9473 49.2725 18.2125 49.7662 19.3909C50.26 20.5693 50.9881 21.6369 51.907 22.53C52.8321 23.4614 53.9345 24.2013 55.1499 24.707C56.4191 25.2252 57.7777 25.4935 59.1502 25.497C60.484 25.4854 61.803 25.2171 63.0339 24.707C64.3436 24.0968 65.5387 23.2694 66.5679 22.2603L66.6846 22.1447L64.2766 20.0639L64.1601 20.1602C62.8391 21.5709 61.0113 22.4084 59.0724 22.4914C57.2745 22.4814 55.5526 21.771 54.2776 20.5133C53.0027 19.2556 52.2768 17.5512 52.2565 15.7675Z" fill="white"/>
<path d="M73.8629 5.88388H70.6071V25.497H73.8629V17.3416H83.0418L83.0222 25.497H86.2976V5.88388H83.0222L83.0418 14.3413H73.8629V5.88388Z" fill="white"/>
<path d="M95.4569 18.8936V5.88388H92.1815V18.8936C92.1815 19.8003 92.7307 25.497 100.027 25.497C107.323 25.497 107.872 19.8003 107.872 18.8936V5.88388H104.597V18.8936C104.545 19.4408 104.386 19.9723 104.129 20.4574C103.872 20.9425 103.522 21.3716 103.099 21.7199C102.675 22.0682 102.188 22.3287 101.664 22.4864C101.14 22.6441 100.59 22.6959 100.046 22.6388C99.4998 22.6988 98.9468 22.6492 98.4194 22.493C97.892 22.3368 97.4007 22.077 96.9739 21.7287C96.5471 21.3804 96.1932 20.9505 95.9328 20.4639C95.6724 19.9772 95.5107 19.4435 95.4569 18.8936Z" fill="white"/>
<path d="M114.764 17.3416H122.802V14.3413H114.764V8.8641H123.563V5.88388H111.795V25.497H123.563V22.5167H114.764V17.3416Z" fill="white"/>
<path d="M159.89 8.83172C158.056 6.9566 155.574 5.89739 152.982 5.884C151.666 5.8774 150.362 6.14376 149.149 6.66692C147.935 7.19009 146.839 7.95925 145.924 8.92808C144.19 10.7273 143.205 13.1443 143.176 15.6712C143.234 18.2949 144.293 20.791 146.125 22.6268C147.958 24.4626 150.418 25.4926 152.982 25.497C154.298 25.4971 155.601 25.224 156.811 24.6941C158.021 24.1643 159.113 23.3887 160.022 22.4144C161.759 20.616 162.75 18.2001 162.789 15.6712C162.774 14.3913 162.51 13.1272 162.012 11.9528C161.514 10.7785 160.793 9.71743 159.89 8.83172ZM152.982 22.5107C152.11 22.5056 151.247 22.3247 150.442 21.9783C149.638 21.6318 148.908 21.1266 148.295 20.4915C147.681 19.8564 147.196 19.1038 146.867 18.2768C146.537 17.4497 146.37 16.5643 146.375 15.6712C146.375 13.8759 147.071 12.1539 148.309 10.8826C149.548 9.61136 151.228 8.89461 152.982 8.88951C153.85 8.89204 154.708 9.0695 155.509 9.41168C156.31 9.75386 157.037 10.2541 157.648 10.8838C158.26 11.5135 158.745 12.2604 159.074 13.0819C159.404 13.9033 159.573 14.7832 159.57 15.6712C159.58 17.4716 158.892 19.2027 157.657 20.4848C156.422 21.7669 154.741 22.4954 152.982 22.5107Z" fill="white"/>
<path d="M25.497 5.88388H21.5744V25.497H25.497V5.88388Z" fill="white"/>
<path d="M132.484 19.9629V5.88388H129.446V19.9629C129.522 21.4905 130.135 22.9248 131.155 23.9585C132.175 24.9923 133.52 25.5435 134.903 25.4939H141.214V22.5172H134.903C134.278 22.5229 133.677 22.2593 133.225 21.7825C132.773 21.3056 132.507 20.6529 132.484 19.9629Z" fill="white"/>
</svg>
